<?xml version="1.0" encoding="utf-8"?>
<!-- Generator: Adobe Illustrator 23.0.3, SVG Export Plug-In . SVG Version: 6.00 Build 0)  -->
<svg version="1.1" id="Isolation_Mode" xmlns="http://www.w3.org/2000/svg" xmlns:xlink="http://www.w3.org/1999/xlink" x="0px"
	 y="0px" viewBox="0 0 25.3 17" style="enable-background:new 0 0 25.3 17;" xml:space="preserve">
<style type="text/css">
	.st0{fill:url(#SVGID_1_);}
	.st1{fill:url(#SVGID_2_);}
	.st2{fill:url(#SVGID_3_);}
	.st3{fill:url(#SVGID_4_);}
</style>
<title>Current Game</title>
<linearGradient id="SVGID_1_" gradientUnits="userSpaceOnUse" x1="1.1505" y1="12.136" x2="1.1505" y2="5.396" gradientTransform="matrix(1 0 0 -1 0 17.276)">
	<stop  offset="2.000000e-02" style="stop-color:#FFDFAF"/>
	<stop  offset="6.000000e-02" style="stop-color:#FFD69A"/>
	<stop  offset="0.1" style="stop-color:#FFD08B"/>
	<stop  offset="0.13" style="stop-color:#FFCE86"/>
	<stop  offset="0.28" style="stop-color:#FCC97F"/>
	<stop  offset="0.49" style="stop-color:#F5BA6D"/>
	<stop  offset="0.74" style="stop-color:#E8A14E"/>
	<stop  offset="1" style="stop-color:#D88227"/>
</linearGradient>
<path class="st0" d="M2.3,5.1C0.4,5.9-0.5,8,0.3,9.8c0.4,0.9,1.1,1.7,2,2c-0.5-0.9-0.7-2-0.8-3c0-0.1,0-0.3,0-0.4
	C1.5,7.3,1.8,6.2,2.3,5.1C2.3,5.2,2.3,5.1,2.3,5.1z"/>
<linearGradient id="SVGID_2_" gradientUnits="userSpaceOnUse" x1="5.7295" y1="14.256" x2="5.7295" y2="3.196" gradientTransform="matrix(1 0 0 -1 0 17.276)">
	<stop  offset="2.000000e-02" style="stop-color:#FFDFAF"/>
	<stop  offset="6.000000e-02" style="stop-color:#FFD69A"/>
	<stop  offset="0.1" style="stop-color:#FFD08B"/>
	<stop  offset="0.13" style="stop-color:#FFCE86"/>
	<stop  offset="0.28" style="stop-color:#FCC97F"/>
	<stop  offset="0.49" style="stop-color:#F5BA6D"/>
	<stop  offset="0.74" style="stop-color:#E8A14E"/>
	<stop  offset="1" style="stop-color:#D88227"/>
</linearGradient>
<path class="st1" d="M6.8,11.9L6.8,11.9c-0.1-0.4-0.2-0.8-0.3-1.2c-0.1-0.6-0.2-1.2-0.2-1.9c0-0.1,0-0.2,0-0.3V8.5
	c0-0.8,0.1-1.5,0.3-2.2l0,0c0.1-0.4,0.2-0.8,0.3-1.2c0.1-0.3,0.2-0.7,0.4-1c0.2-0.3,0.4-0.7,0.6-1C7.3,3.2,6.8,3.4,6.4,3.6
	C6.1,3.8,5.8,4.1,5.5,4.3C5.2,4.6,5,4.8,4.8,5.1C4.2,6,3.8,6.9,3.7,7.9c0,0.2,0,0.4,0,0.6c0,0.1,0,0.3,0,0.4c0.1,1.1,0.5,2.1,1.1,3
	c0.2,0.3,0.5,0.6,0.7,0.8c0.3,0.3,0.6,0.5,0.9,0.7c0.4,0.3,0.9,0.5,1.4,0.6c-0.2-0.4-0.5-0.7-0.7-1.1C7,12.7,6.9,12.3,6.8,11.9z"/>
<linearGradient id="SVGID_3_" gradientUnits="userSpaceOnUse" x1="16.8982" y1="17.277" x2="16.8982" y2="0.2757" gradientTransform="matrix(1 0 0 -1 0 17.276)">
	<stop  offset="2.000000e-02" style="stop-color:#FFDFAF"/>
	<stop  offset="6.000000e-02" style="stop-color:#FFD69A"/>
	<stop  offset="0.1" style="stop-color:#FFD08B"/>
	<stop  offset="0.13" style="stop-color:#FFCE86"/>
	<stop  offset="0.28" style="stop-color:#FCC97F"/>
	<stop  offset="0.49" style="stop-color:#F5BA6D"/>
	<stop  offset="0.74" style="stop-color:#E8A14E"/>
	<stop  offset="1" style="stop-color:#D88227"/>
</linearGradient>
<path class="st2" d="M16.8,0c-1.5,0-3,0.4-4.3,1.2c-0.4,0.2-0.7,0.5-1,0.7l-0.9,0.8l-0.1,0.1C9.6,3.7,9,4.8,8.7,5.9
	C8.6,6.1,8.6,6.3,8.5,6.4s0,0.1,0,0.1c0,0-0.1,0.7-0.1,0.9l0,0v0.3c0,0.1,0,0.2,0,0.3c0,0.2,0,0.3,0,0.5v0.1c0,2.1,0.8,4.1,2.2,5.6
	c0.3,0.3,0.6,0.6,0.9,0.9c0.3,0.3,0.7,0.5,1,0.7c4,2.4,9.2,1.1,11.7-2.9s1.1-9.2-2.9-11.7C19.9,0.4,18.3,0,16.8,0z"/>
<radialGradient id="SVGID_4_" cx="17.644" cy="8.776" r="3.9179" gradientTransform="matrix(1 0 0 -1 0 17.276)" gradientUnits="userSpaceOnUse">
	<stop  offset="0.39" style="stop-color:#93002D"/>
	<stop  offset="0.5" style="stop-color:#8B012C"/>
	<stop  offset="1" style="stop-color:#680426"/>
</radialGradient>
<path class="st3" d="M14.4,12.3V4.7c0-0.4,0.3-0.7,0.7-0.7c0.2,0,0.3,0.1,0.5,0.2l5,3.8c0.3,0.2,0.4,0.7,0.2,1
	c0,0.1-0.1,0.1-0.2,0.2l-5,3.8c-0.3,0.2-0.8,0.2-1-0.1C14.5,12.6,14.4,12.4,14.4,12.3z"/>
</svg>
