<svg xmlns="http://www.w3.org/2000/svg" xmlns:xlink="http://www.w3.org/1999/xlink" viewBox="0 0 418 18.27"><defs><linearGradient id="a" y1="9.14" x2="72.24" y2="9.14" gradientUnits="userSpaceOnUse"><stop offset="0" stop-color="#e79e3e"/><stop offset="1" stop-color="#e79e3d"/></linearGradient><linearGradient id="b" x1="296.37" y1="9.14" x2="418" y2="9.14" xlink:href="#a"/><linearGradient id="c" x1="181.29" y1="9.14" x2="302.92" y2="9.14" xlink:href="#a"/><linearGradient id="d" x1="66.02" y1="9.14" x2="187.65" y2="9.14" xlink:href="#a"/></defs><title>ticket-head-yellow</title><path d="M72.24,0H64.85a4.53,4.53,0,0,1-4.53,2.92A4.53,4.53,0,0,1,55.78,0H48.39a4.55,4.55,0,0,1-4.54,2.92A4.54,4.54,0,0,1,39.31,0H31.92a4.54,4.54,0,0,1-4.54,2.92A4.55,4.55,0,0,1,22.84,0H15.45a4.53,4.53,0,0,1-4.54,2.92A4.53,4.53,0,0,1,6.38,0H0V18.27H72.21S72.24,4,72.24,0Z" fill="url(#a)"/><path d="M410.63,0a4.55,4.55,0,0,1-4.54,2.92A4.53,4.53,0,0,1,401.55,0h-7.39a4.54,4.54,0,0,1-4.54,2.92A4.54,4.54,0,0,1,385.08,0h-7.39a4.53,4.53,0,0,1-4.54,2.92A4.55,4.55,0,0,1,368.61,0h-7.39a4.53,4.53,0,0,1-4.53,2.92A4.53,4.53,0,0,1,352.15,0h-7.39a4.55,4.55,0,0,1-4.54,2.92A4.54,4.54,0,0,1,335.68,0h-7.39a4.54,4.54,0,0,1-4.54,2.92A4.55,4.55,0,0,1,319.21,0h-7.39a4.53,4.53,0,0,1-4.54,2.92A4.53,4.53,0,0,1,302.75,0h-6.38V18.27H418V0Z" fill="url(#b)"/><path d="M295.55,0A4.55,4.55,0,0,1,291,2.92,4.53,4.53,0,0,1,286.47,0h-7.39a4.55,4.55,0,0,1-4.54,2.92A4.54,4.54,0,0,1,270,0h-7.39a4.54,4.54,0,0,1-4.54,2.92A4.55,4.55,0,0,1,253.53,0h-7.39a4.53,4.53,0,0,1-4.53,2.92A4.53,4.53,0,0,1,237.07,0h-7.39a4.55,4.55,0,0,1-4.54,2.92A4.54,4.54,0,0,1,220.6,0h-7.39a4.54,4.54,0,0,1-4.54,2.92A4.55,4.55,0,0,1,204.13,0h-7.39a4.53,4.53,0,0,1-4.54,2.92A4.55,4.55,0,0,1,187.66,0h-6.37V18.27H302.92V0Z" fill="url(#c)"/><path d="M180.28,0a4.55,4.55,0,0,1-4.54,2.92A4.53,4.53,0,0,1,171.2,0h-7.39a4.55,4.55,0,0,1-4.54,2.92A4.54,4.54,0,0,1,154.73,0h-7.39a4.54,4.54,0,0,1-4.54,2.92A4.55,4.55,0,0,1,138.26,0h-7.39a4.53,4.53,0,0,1-4.53,2.92A4.53,4.53,0,0,1,121.8,0h-7.39a4.55,4.55,0,0,1-4.54,2.92A4.54,4.54,0,0,1,105.33,0H97.94A4.54,4.54,0,0,1,93.4,2.92,4.55,4.55,0,0,1,88.86,0H81.47a4.53,4.53,0,0,1-4.54,2.92A4.53,4.53,0,0,1,72.4,0H66V18.27H187.65V0Z" fill="url(#d)"/></svg>