<svg id="Layer_1" data-name="Layer 1" xmlns="http://www.w3.org/2000/svg" xmlns:xlink="http://www.w3.org/1999/xlink" viewBox="0 0 31 31"><defs><style>.cls-1{fill:url(#linear-gradient);}</style><linearGradient id="linear-gradient" x1="15.5" x2="15.5" y2="31" gradientUnits="userSpaceOnUse"><stop offset="0.02" stop-color="#fdddad"/><stop offset="0.06" stop-color="#fdd498"/><stop offset="0.1" stop-color="#fdce89"/><stop offset="0.13" stop-color="#fdcc84"/><stop offset="0.28" stop-color="#fbc77f"/><stop offset="0.48" stop-color="#f4bb6f"/><stop offset="0.71" stop-color="#e9a555"/><stop offset="0.95" stop-color="#da8731"/><stop offset="1" stop-color="#d68028"/></linearGradient></defs><title>Cross (close)</title><path class="cls-1" d="M25.47.59l-10,10-10-10a1.91,1.91,0,0,0-2.75,0L.58,2.79a1.93,1.93,0,0,0,0,2.75l10,10-9.93,10a1.91,1.91,0,0,0,0,2.74l2.2,2.21a1.93,1.93,0,0,0,2.75,0l9.93-10,10,10a1.93,1.93,0,0,0,2.75,0l2.2-2.2a1.93,1.93,0,0,0,0-2.75l-10-9.95,10-10a1.93,1.93,0,0,0,0-2.75L28.18.55A1.9,1.9,0,0,0,25.47.59Z"/></svg>