<svg id="Isolation_Mode" data-name="Isolation Mode" xmlns="http://www.w3.org/2000/svg" xmlns:xlink="http://www.w3.org/1999/xlink" viewBox="0 0 28 29"><defs><style>.cls-1{fill:url(#linear-gradient);}.cls-2{fill:url(#linear-gradient-2);}.cls-3{fill:url(#linear-gradient-3);}.cls-4{fill:url(#linear-gradient-4);}</style><linearGradient id="linear-gradient" x1="5.95" y1="0.25" x2="5.02" y2="27.69" gradientUnits="userSpaceOnUse"><stop offset="0" stop-color="#f5ddaf"/><stop offset="0.17" stop-color="#f1cc87"/><stop offset="1" stop-color="#c37f25"/></linearGradient><linearGradient id="linear-gradient-2" x1="22.41" y1="0.83" x2="21.49" y2="28.25" xlink:href="#linear-gradient"/><linearGradient id="linear-gradient-3" x1="22.99" y1="0.84" x2="22.06" y2="28.28" xlink:href="#linear-gradient"/><linearGradient id="linear-gradient-4" x1="6.53" y1="0.28" x2="5.6" y2="27.7" xlink:href="#linear-gradient"/></defs><title>Vector Smart Object18</title><path class="cls-1" d="M.12,9.92,0,.83A.8.8,0,0,1,.8,0L9.47.13A.83.83,0,0,1,10,1.54L7.6,4.06l4,4.21-3.73,3.9L3.87,8,1.46,10.49A.78.78,0,0,1,.12,9.92"/><path class="cls-2" d="M24.12,8l2.41,2.53A.78.78,0,0,0,27.87,10L28,.89a.81.81,0,0,0-.8-.83L18.54.19A.83.83,0,0,0,18,1.6L20.4,4.11l-4,4.2,3.72,3.91Z"/><path class="cls-3" d="M18,27.46a.83.83,0,0,0,.55,1.41L27.2,29a.8.8,0,0,0,.79-.84l-.12-9.08a.78.78,0,0,0-1.34-.57L24.12,21l-4-4.2-3.72,3.9,4,4.2Z"/><path class="cls-4" d="M.8,28.94l8.67-.13A.83.83,0,0,0,10,27.4L7.6,24.88l4-4.2-3.73-3.9-4,4.2L1.46,18.45A.77.77,0,0,0,.13,19L0,28.11a.82.82,0,0,0,.8.83"/></svg>
