<svg id="Layer_1" data-name="Layer 1" xmlns="http://www.w3.org/2000/svg" xmlns:xlink="http://www.w3.org/1999/xlink" viewBox="0 0 34 30"><defs><style>.cls-1{fill:url(#linear-gradient);}.cls-2{fill:url(#linear-gradient-2);}</style><linearGradient id="linear-gradient" x1="12.91" y1="8.38" x2="12.91" y2="21.65" gradientUnits="userSpaceOnUse"><stop offset="0.02" stop-color="#ffdfaf"/><stop offset="0.06" stop-color="#ffd69a"/><stop offset="0.1" stop-color="#ffd08b"/><stop offset="0.13" stop-color="#ffce86"/><stop offset="0.29" stop-color="#fdca82"/><stop offset="0.48" stop-color="#f8c074"/><stop offset="0.67" stop-color="#efae5f"/><stop offset="0.87" stop-color="#e29640"/><stop offset="1" stop-color="#d88227"/></linearGradient><linearGradient id="linear-gradient-2" x1="19.35" y1="0" x2="19.35" y2="30" xlink:href="#linear-gradient"/></defs><title>Vector Smart Object11</title><path class="cls-1" d="M0,15l6.28,6.43.11.23L12.91,15ZM17.76,8.38v8.26l6.91,4.2,1.16-2L20.18,15.4v-7Z"/><path class="cls-2" d="M19.35,30V27a11.86,11.86,0,0,0,11.7-12A11.86,11.86,0,0,0,19.35,3,11.86,11.86,0,0,0,7.65,15H4.7A14.84,14.84,0,0,1,19.35,0,14.84,14.84,0,0,1,34,15,14.84,14.84,0,0,1,19.35,30Z"/></svg>