<svg id="Layer_1" data-name="Layer 1" xmlns="http://www.w3.org/2000/svg" xmlns:xlink="http://www.w3.org/1999/xlink" viewBox="0 0 21 30"><defs><style>.cls-1{fill:url(#linear-gradient);}</style><linearGradient id="linear-gradient" x1="10.5" x2="10.5" y2="30" gradientUnits="userSpaceOnUse"><stop offset="0" stop-color="#ffdfb1"/><stop offset="0.11" stop-color="#fece89"/><stop offset="1" stop-color="#c47f25"/></linearGradient></defs><title>Vector Smart Object12</title><path class="cls-1" d="M20,13,3.84.5A2.4,2.4,0,0,0,0,2.48v25a2.4,2.4,0,0,0,3.84,2L20,17A2.52,2.52,0,0,0,20,13ZM8.33,7A1.47,1.47,0,1,1,6.9,8.48,1.44,1.44,0,0,1,8.33,7ZM9.81,21.64,7,22.88a.9.9,0,0,1-.42.12C6,23,5,22.35,5.07,21.75l1.44-7s-1.35.52-1.62,0a1.08,1.08,0,0,1,.28-1.43l2.61-1.71c.85-.49,1.71.58,1.55,1.34L8,20.22l1-.49a1,1,0,0,1,1.32.55A1,1,0,0,1,9.81,21.64Z"/></svg>