<svg id="Isolation_Mode" data-name="Isolation Mode" xmlns="http://www.w3.org/2000/svg" xmlns:xlink="http://www.w3.org/1999/xlink" viewBox="0 0 120 100"><defs><style>.cls-1{fill:url(#linear-gradient);}.cls-2{fill:#fff;}</style><linearGradient id="linear-gradient" x1="60" x2="60" y2="100" gradientUnits="userSpaceOnUse"><stop offset="0.02" stop-color="#f5ddaf"/><stop offset="0.06" stop-color="#f3d59c"/><stop offset="0.09" stop-color="#f2ce8d"/><stop offset="0.13" stop-color="#f1cc88"/><stop offset="0.32" stop-color="#efc884"/><stop offset="0.51" stop-color="#e8be78"/><stop offset="0.69" stop-color="#ddac64"/><stop offset="0.88" stop-color="#ce9348"/><stop offset="1" stop-color="#c28033"/></linearGradient></defs><title>Insufficient funds</title><path class="cls-1" d="M118.17,78.76,72.07,6.62a14.46,14.46,0,0,0-24.3,0L2,78.76v.14a13.66,13.66,0,0,0-2,7A14.22,14.22,0,0,0,14.25,100h91.49A14.21,14.21,0,0,0,120,85.93,13.16,13.16,0,0,0,118.17,78.76Zm-12.29,13H14.25a5.86,5.86,0,0,1-5.87-5.79,6.24,6.24,0,0,1,.7-2.76l46-72a6,6,0,0,1,10.06,0L111,83a5,5,0,0,1,.7,2.9A5.86,5.86,0,0,1,105.88,91.72Z"/><path class="cls-2" d="M60,71.32a5.12,5.12,0,0,0-3.8,1.53,5,5,0,0,0-1.57,3.68,4.44,4.44,0,0,0,1.7,3.82,5.86,5.86,0,0,0,7.6,0,4.72,4.72,0,0,0,1.57-3.82,5,5,0,0,0-1.57-3.68A5.87,5.87,0,0,0,60,71.32Z"/><path class="cls-2" d="M60.26,28.75a5.41,5.41,0,0,0-4.19,1.65A6.28,6.28,0,0,0,54.5,35c0,1.4.13,3.82.26,7l1.18,16.78A15.78,15.78,0,0,0,57,63.57a2.91,2.91,0,0,0,2.75,1.65,2.74,2.74,0,0,0,2.75-1.65,13.59,13.59,0,0,0,1-4.7l1.7-17.29c.13-1.65.26-3.17.26-4.7a13.94,13.94,0,0,0-1-6C63.67,29.38,62.36,28.75,60.26,28.75Z"/></svg>