<svg id="Layer_1" data-name="Layer 1" xmlns="http://www.w3.org/2000/svg" viewBox="0 0 169.04 79.36"><defs><style>.cls-1{fill:#23af23;}</style></defs><path class="cls-1" d="M0,19.86H13.36V49.13H31.25V59.5H0Z"/><path class="cls-1" d="M32.78,39.68c0-12,9.45-20.72,22.36-20.72S77.5,27.68,77.5,39.68,68.05,60.4,55.14,60.4,32.78,51.68,32.78,39.68Zm31.25,0c0-6.17-4-9.91-8.89-9.91s-8.89,3.74-8.89,9.91,4,9.91,8.89,9.91S64,45.85,64,39.68Z"/><path class="cls-1" d="M108.58,38.6h11.61V55.36a32,32,0,0,1-17.27,5c-12.8,0-22.14-8.55-22.14-20.72S90.12,19,103.2,19c7.81,0,14.1,2.72,18.12,7.64l-8.55,7.53a11.3,11.3,0,0,0-8.89-4.36c-5.89,0-9.62,3.8-9.62,9.91,0,5.94,3.73,9.91,9.45,9.91a12.61,12.61,0,0,0,4.87-1Z"/><path class="cls-1" d="M124.31,39.68c0-12,9.46-20.72,22.37-20.72S169,27.68,169,39.68,159.59,60.4,146.68,60.4,124.31,51.68,124.31,39.68Zm31.26,0c0-6.17-4-9.91-8.89-9.91s-8.89,3.74-8.89,9.91,4,9.91,8.89,9.91S155.57,45.85,155.57,39.68Z"/></svg>