<svg id="Capa_1" data-name="Capa 1" xmlns="http://www.w3.org/2000/svg" viewBox="0 0 44 39"><defs><style>.cls-1{fill:#e8ac58;}</style></defs><title>Arrow</title><path class="cls-1" d="M41.36,16.31a2.55,2.55,0,0,0-.55,0h-31l.68-.33a6.27,6.27,0,0,0,1.78-1.3l8.7-9a3.45,3.45,0,0,0,.46-4.31A3.08,3.08,0,0,0,17,.63a2.88,2.88,0,0,0-.33.28L.92,17.18a3.33,3.33,0,0,0,0,4.6h0L16.66,38.05a3.08,3.08,0,0,0,4.46,0c.09-.1.18-.2.27-.32a3.45,3.45,0,0,0-.46-4.31l-8.69-9a6.26,6.26,0,0,0-1.57-1.19l-.95-.44H40.64a3.26,3.26,0,0,0,.72-6.46Z"/></svg>