<svg xmlns="http://www.w3.org/2000/svg" xmlns:xlink="http://www.w3.org/1999/xlink" viewBox="0 0 119 29.61"><defs><linearGradient id="a" y1="14.8" x2="119" y2="14.8" gradientUnits="userSpaceOnUse"><stop offset="0" stop-color="#e79e3e"/><stop offset="1" stop-color="#e79e3d"/></linearGradient></defs><path d="M111.79,0a4.56,4.56,0,0,1-4.45,3.56A4.56,4.56,0,0,1,102.9,0H95.67a4.54,4.54,0,0,1-4.44,3.56A4.56,4.56,0,0,1,86.79,0H79.56a4.54,4.54,0,0,1-4.44,3.56A4.56,4.56,0,0,1,70.68,0H63.45A4.54,4.54,0,0,1,59,3.56,4.55,4.55,0,0,1,54.57,0H47.34A4.55,4.55,0,0,1,42.9,3.56,4.55,4.55,0,0,1,38.46,0H31.23a4.55,4.55,0,0,1-4.44,3.56A4.54,4.54,0,0,1,22.35,0H15.12a4.55,4.55,0,0,1-4.44,3.56A4.54,4.54,0,0,1,6.24,0H0V29.61H119V0Z" fill="url(#a)"/></svg>
