<svg xmlns="http://www.w3.org/2000/svg" viewBox="0 0 512 512"><path d="M511.71,243.75c0-.64-.06-1.29-.1-1.93,0-.38,0-.76-.06-1.15q-.23-3.82-.56-7.65-.39-4.38-.92-8.73c-.13-1-.26-2.09-.41-3.13s-.28-2.08-.44-3.11c-.32-2.17-.66-4.34-1-6.49-.16-.94-.33-1.88-.51-2.81s-.38-2.06-.59-3.08-.41-2-.63-3.07q-.6-2.86-1.27-5.7l-.78-3.24q-2.7-10.83-6.33-21.35c-.34-1-.69-2-1.05-3-1-2.84-2.08-5.67-3.21-8.47q-.57-1.44-1.17-2.88c-.34-.83-.69-1.65-1-2.48s-.79-1.84-1.2-2.75-.72-1.63-1.09-2.44c-.29-.65-.59-1.29-.89-1.94-.1-.24-.22-.47-.33-.71-.32-.68-.64-1.37-1-2-.74-1.57-1.51-3.12-2.29-4.66-.45-.91-.92-1.81-1.39-2.72q-1.6-3.1-3.32-6.17c-.29-.54-.58-1.07-.89-1.6s-.49-.87-.74-1.3h0c-.35-.62-.69-1.24-1.05-1.85-.55-.93-1.09-1.85-1.64-2.76q-2.9-4.83-6-9.54c-1.07-1.61-2.14-3.2-3.25-4.79-.73-1.06-1.47-2.1-2.22-3.14-.62-.87-1.25-1.74-1.89-2.6-.27-.38-.55-.75-.83-1.12q-1.54-2.08-3.14-4.12-1.94-2.49-3.95-4.95l-1-1.25q-4.65-5.62-9.64-11l-1.42-1.52-.09-.09c-.67-.71-1.34-1.42-2-2.12Q438.67,76.63,437,75c-.79-.79-1.58-1.57-2.38-2.34-.47-.47-.95-.93-1.43-1.39-.72-.7-1.45-1.39-2.19-2.08s-1.77-1.65-2.66-2.46-2-1.78-3-2.66-2.12-1.87-3.2-2.78c-.69-.61-1.4-1.2-2.11-1.79s-1.67-1.39-2.51-2.08-1.68-1.37-2.53-2L413,53.71c-.74-.57-1.48-1.15-2.23-1.71l-1.44-1.09c-.58-.44-1.16-.88-1.75-1.31l-.87-.64-1.74-1.25c-.95-.69-1.9-1.36-2.87-2-1.76-1.24-3.54-2.44-5.34-3.63-1-.68-2.06-1.35-3.1-2s-1.88-1.2-2.82-1.78l-.75-.47c-.77-.48-1.55-.94-2.32-1.41l-.93-.56c-.95-.57-1.9-1.13-2.86-1.68s-2.12-1.22-3.2-1.82l-1.48-.82q-4.2-2.33-8.5-4.47c-.68-.35-1.36-.69-2.05-1l-2-1-2.06-1q-1-.5-2.07-1-5.64-2.58-11.39-4.88c-1-.39-1.93-.77-2.9-1.14L345.33,16l-2.23-.82c-1.32-.48-2.64-.94-4-1.39l-2.61-.88q-8.41-2.79-17-5l-2.3-.57-2.61-.62c-.73-.18-1.46-.34-2.2-.51l-3-.64-2.08-.43-1.58-.31q-8.1-1.6-16.33-2.66l-2.24-.28q-3.57-.44-7.15-.76s0,0,0,0c-.83-.09-1.67-.16-2.51-.22Q274.25.61,271,.44c-.51,0-1-.07-1.54-.09L267.92.28l-.56,0C266.18.2,265,.16,263.82.12h-.5c-1.2,0-2.4-.07-3.61-.08S257.24,0,256,0q-7.53,0-15,.44A253.86,253.86,0,0,0,140.09,27.61L137.47,29c-2.62,1.36-5.23,2.78-7.8,4.25q-7.89,4.48-15.47,9.54-3.69,2.48-7.3,5.07a260.18,260.18,0,0,0-60.06,60.46q-2.75,3.85-5.33,7.8A253.79,253.79,0,0,0,.38,242Q0,249,0,256q0,8,.49,16,.24,4.08.63,8.14a253.94,253.94,0,0,0,22,82.6q2.07,4.5,4.31,8.91a254.65,254.65,0,0,0,15.12,25.91,259.91,259.91,0,0,0,73.24,72.77,250,250,0,0,0,26,15q3.78,1.89,7.62,3.65a253.88,253.88,0,0,0,83,22q4.57.44,9.18.67,7.14.4,14.36.4c1.59,0,3.17,0,4.75-.05.83,0,1.66,0,2.48-.06h.24l.93,0h.16l3.18-.12c1.15-.05,2.3-.11,3.44-.18l.46,0c1.16-.07,2.32-.14,3.47-.23q3.17-.24,6.32-.54c1.1-.11,2.21-.22,3.31-.35L288,510c.95-.11,1.89-.24,2.84-.37.65-.08,1.29-.17,1.94-.27l1.35-.2c1-.14,2-.29,2.93-.45.74-.11,1.47-.23,2.2-.36l1.66-.29.3,0,1.7-.31.63-.12c.56-.1,1.11-.2,1.66-.32a1.53,1.53,0,0,0,.36-.07l1.31-.25,2.52-.52q4-.82,7.9-1.8c.9-.21,1.79-.44,2.68-.67l1.59-.41,2.09-.56h0c.84-.23,1.69-.46,2.53-.71l2.23-.64c1.42-.42,2.85-.85,4.26-1.29.94-.29,1.87-.59,2.8-.9s2-.67,3.06-1l1.53-.52,1.53-.54c1-.36,2-.72,3-1.1s2-.74,3-1.13l3-1.18,3-1.21,3-1.25.2-.08c1.2-.52,2.4-1,3.6-1.58l.12-.05,3.55-1.63q3.61-1.69,7.17-3.49l3.33-1.71,2.57-1.37c2.52-1.34,5-2.74,7.46-4.17l3-1.81c2.31-1.38,4.59-2.81,6.85-4.27.9-.58,1.79-1.17,2.68-1.76q3.54-2.34,7-4.83c1.45-1,2.88-2.08,4.31-3.14s2.84-2.13,4.24-3.23l1.68-1.32c.84-.66,1.68-1.33,2.51-2s1.39-1.13,2.07-1.7l2.41-2q8-6.79,15.53-14.32,1.75-1.75,3.47-3.54c.69-.71,1.37-1.43,2-2.15,1.32-1.39,2.6-2.79,3.88-4.2s2.41-2.7,3.59-4.07l.36-.42c.71-.82,1.41-1.65,2.1-2.48q1.59-1.89,3.14-3.81l1.29-1.62c.61-.77,1.21-1.53,1.81-2.31s1.2-1.55,1.79-2.34q1.49-1.95,2.91-3.92c.49-.68,1-1.35,1.46-2A1,1,0,0,0,465,404c1-1.47,2.09-3,3.11-4.47.67-1,1.32-1.95,2-2.93l.09-.13a1.19,1.19,0,0,0,.09-.15c.41-.61.81-1.21,1.2-1.83.14-.22.29-.44.43-.67q1.18-1.86,2.36-3.75c.65-1.06,1.29-2.12,1.93-3.19l.75-1.28c.38-.64.76-1.28,1.13-1.92q2.84-4.89,5.42-9.89c.57-1.1,1.13-2.2,1.68-3.31.86-1.71,1.7-3.42,2.51-5.15.66-1.41,1.32-2.82,2-4.24.35-.77.68-1.53,1-2.3s.8-1.85,1.19-2.77c1.76-4.11,3.39-8.28,4.91-12.48.27-.72.53-1.45.78-2.18,1-2.75,1.9-5.53,2.77-8.32.3-.93.58-1.86.86-2.79s.53-1.76.79-2.64c.35-1.2.69-2.41,1-3.62.05-.18.1-.36.14-.54.27-1,.53-2,.78-2.95.07-.25.14-.5.19-.75.21-.8.42-1.61.61-2.42l.39-1.6c1.14-4.8,2.15-9.65,3-14.53.13-.74.27-1.49.39-2.24s.21-1.25.31-1.88c.17-1,.33-2.07.48-3.11s.3-2.07.44-3.11c.21-1.52.4-3,.57-4.55.1-.83.19-1.67.28-2.51.12-1.08.23-2.17.33-3.26.06-.55.11-1.1.15-1.64s.09-1.09.14-1.64c.08-1,.15-1.94.22-2.91,0-.42.07-.85.09-1.27.05-.8.1-1.59.14-2.39q.1-1.83.18-3.66.17-3.66.21-7.33c0-1.23,0-2.45,0-3.68v-.27Q512,249.72,511.71,243.75Z" fill="#f1f1f1"/><path d="M511.71,243.75c0-.64-.06-1.29-.1-1.93,0-.38,0-.76-.06-1.15q-.23-3.82-.56-7.65-.39-4.38-.92-8.73c-.13-1-.26-2.09-.41-3.13s-.28-2.08-.44-3.11c-.32-2.17-.66-4.34-1-6.49-.16-.94-.33-1.88-.51-2.81s-.38-2.06-.59-3.08-.41-2-.63-3.07q-.6-2.86-1.27-5.7l-.78-3.24q-2.7-10.83-6.33-21.35c-.34-1-.69-2-1.05-3-1-2.84-2.08-5.67-3.21-8.47q-.57-1.44-1.17-2.88c-.34-.83-.69-1.65-1-2.48s-.79-1.84-1.2-2.75-.72-1.63-1.09-2.44c-.29-.65-.59-1.29-.89-1.94-.1-.24-.22-.47-.33-.71-.32-.68-.64-1.37-1-2-.74-1.57-1.51-3.12-2.29-4.66-.45-.91-.92-1.81-1.39-2.72q-1.6-3.1-3.32-6.17c-.29-.54-.58-1.07-.89-1.6q-.89-1.59-1.8-3.15c-.55-.93-1.09-1.85-1.64-2.76q-2.9-4.83-6-9.54l-66.21,38.3a181.09,181.09,0,0,0-45.06-45l38.22-66.26c-1-.68-2.06-1.35-3.1-2s-1.88-1.2-2.82-1.78l-.75-.47c-1.08-.67-2.16-1.32-3.25-2s-1.9-1.13-2.86-1.68-2.12-1.22-3.2-1.82l-1.48-.82q-4.2-2.33-8.5-4.47c-.68-.35-1.36-.69-2.05-1l-2-1-2.06-1q-1-.5-2.07-1-5.64-2.58-11.39-4.88c-1-.39-1.93-.77-2.9-1.14L345.33,16l-2.23-.82c-1.32-.48-2.64-.94-4-1.39l-2.61-.88q-8.41-2.79-17-5l-2.3-.57-2.61-.62c-.73-.18-1.46-.34-2.2-.51l-3-.64-2.08-.43-1.58-.31q-8.1-1.6-16.33-2.66l-2.24-.28q-3.57-.44-7.15-.76s0,0,0,0c-.83-.09-1.67-.16-2.51-.22Q274.25.61,271,.44c-.51,0-1-.07-1.54-.09L267.92.28c-1.53-.07-3.06-.13-4.6-.17l-1.8,0-1.81,0c-1.23,0-2.47,0-3.71,0q-7.53,0-15,.44V76.78a178.58,178.58,0,0,0-62.37,16.88l-38.54-66L137.47,29c-2.62,1.37-5.21,2.81-7.79,4.27v0q-7.89,4.48-15.47,9.54-3.69,2.48-7.3,5.07a260.18,260.18,0,0,0-60.06,60.46q-2.75,3.85-5.33,7.8a252.61,252.61,0,0,0-14.92,26l66.4,38a178.32,178.32,0,0,0-16.27,61.6L.38,242Q0,249,0,256q0,8,.49,16,.24,4.08.63,8.14a253.94,253.94,0,0,0,22,82.6q2.07,4.5,4.31,8.91a254.65,254.65,0,0,0,15.12,25.91l66.12-38.47A181.25,181.25,0,0,0,153.87,404L115.82,470.3a250,250,0,0,0,26,15q3.78,1.89,7.62,3.65a253.88,253.88,0,0,0,83,22q4.57.44,9.18.67,7.14.4,14.36.4c1.59,0,3.17,0,4.75-.05.83,0,1.66,0,2.48-.06h.24l.93,0h.16l3.18-.12c1.15-.05,2.3-.11,3.44-.18l.46,0-.19-76.35A178.4,178.4,0,0,0,333,418.53l38.38,66.15,3.33-1.71,2.57-1.37c2.52-1.34,5-2.74,7.46-4.17l3-1.81c2.31-1.38,4.59-2.81,6.85-4.27.9-.58,1.79-1.17,2.68-1.76q3.54-2.34,7-4.83c1.45-1,2.88-2.08,4.31-3.14s2.84-2.13,4.24-3.23l1.68-1.32c.84-.66,1.68-1.33,2.51-2s1.39-1.13,2.07-1.7l2.41-2q8-6.79,15.53-14.32,1.75-1.75,3.47-3.54c.69-.71,1.37-1.43,2-2.15,1.32-1.39,2.6-2.79,3.88-4.2s2.41-2.7,3.59-4.07l.36-.42c.71-.82,1.41-1.65,2.1-2.48q1.59-1.89,3.14-3.81l1.29-1.62c.61-.77,1.21-1.53,1.81-2.31s1.2-1.55,1.79-2.34q1.49-1.95,2.91-3.92c.49-.68,1-1.35,1.46-2A1,1,0,0,0,465,404c1-1.47,2.09-3,3.11-4.47.67-1,1.32-1.95,2-2.93l.09-.13a1.19,1.19,0,0,0,.09-.15c.41-.61.81-1.21,1.2-1.83.14-.22.29-.44.43-.67q1.18-1.86,2.36-3.75c.65-1.06,1.29-2.12,1.93-3.19s1.26-2.13,1.88-3.2q2.84-4.89,5.42-9.89c.57-1.1,1.13-2.2,1.68-3.31l-66.3-38.13a178.59,178.59,0,0,0,16.42-61.56l76.34-.1q.1-1.83.18-3.66.17-3.66.21-7.33c0-1.23,0-2.45,0-3.68Q512,249.85,511.71,243.75ZM256,405.85c-82.63,0-149.85-67.22-149.85-149.85S173.37,106.15,256,106.15,405.85,173.37,405.85,256,338.63,405.85,256,405.85Z" fill="#41884c"/></svg>
