<svg id="Isolation_Mode" data-name="Isolation Mode" xmlns="http://www.w3.org/2000/svg" xmlns:xlink="http://www.w3.org/1999/xlink" viewBox="0 0 19 16"><defs><style>.cls-1{fill:url(#linear-gradient);}</style><linearGradient id="linear-gradient" x1="9.5" x2="9.5" y2="16" gradientUnits="userSpaceOnUse"><stop offset="0.02" stop-color="#f5ddaf"/><stop offset="0.06" stop-color="#f3d49b"/><stop offset="0.1" stop-color="#f1ce8c"/><stop offset="0.13" stop-color="#f1cc88"/><stop offset="0.28" stop-color="#edc781"/><stop offset="0.49" stop-color="#e4b871"/><stop offset="0.74" stop-color="#d59f54"/><stop offset="1" stop-color="#c28033"/></linearGradient></defs><title>History</title><path class="cls-1" d="M10.86,0A8.28,8.28,0,0,0,2.57,8.06H0l3.52,3.43.06.13L7.24,8.06H4.65a6.14,6.14,0,0,1,6.21-6.17A6,6,0,0,1,17,8a6,6,0,0,1-6.09,6.09A6.05,6.05,0,0,1,6.55,12.3L5.1,13.67A8.21,8.21,0,0,0,10.86,16,8,8,0,0,0,19,8.06,8.15,8.15,0,0,0,10.86,0ZM10,4.53V8.94l3.8,2.32.79-1.21L11.48,8.24l0-3.71Z"/></svg>