<svg id="Layer_1" data-name="Layer 1" xmlns="http://www.w3.org/2000/svg" viewBox="0 0 30.94 29"><defs><style>.cls-1{fill:#daa153;}</style></defs><title>Vector Smart Object2</title><path class="cls-1" d="M30.65,13.33l-12-12a4.46,4.46,0,0,0-6.32,0l-12,12a1,1,0,0,0,0,1.37,1,1,0,0,0,1.37,0l.77-.77V26.22A2.77,2.77,0,0,0,5.2,29H10a.6.6,0,0,0,.6-.6V19.45a3,3,0,0,1,3-3h3.63a3,3,0,0,1,3,3v9a.6.6,0,0,0,.61.6h4.83a2.78,2.78,0,0,0,2.78-2.78V13.93l.77.77A.93.93,0,0,0,30,15a.94.94,0,0,0,.68-.28,1,1,0,0,0,0-1.37Z"/></svg>