<svg xmlns="http://www.w3.org/2000/svg" xmlns:xlink="http://www.w3.org/1999/xlink" viewBox="0 0 1457.88 980.27"><defs><linearGradient id="a" x1="1215.75" y1="806.74" x2="1565.49" y2="342.63" gradientUnits="userSpaceOnUse"><stop offset="0" stop-color="#ffc173"/><stop offset="0.26" stop-color="#fdc072"/><stop offset="0.28" stop-color="#f6b869"/><stop offset="0.31" stop-color="#e1a251"/><stop offset="0.35" stop-color="#c17e29"/><stop offset="0.36" stop-color="#b97520"/><stop offset="0.63" stop-color="#e2b06a"/><stop offset="0.82" stop-color="#ffdaa0"/><stop offset="0.91" stop-color="#e3ab51"/><stop offset="0.97" stop-color="#cf8a1c"/><stop offset="1" stop-color="#c87e07"/></linearGradient><linearGradient id="b" x1="1214.21" y1="781.83" x2="1576.79" y2="364.73" gradientUnits="userSpaceOnUse"><stop offset="0" stop-color="#6a3c00"/><stop offset="0.03" stop-color="#8c540a"/><stop offset="0.06" stop-color="#ab6912"/><stop offset="0.1" stop-color="#c27a19"/><stop offset="0.13" stop-color="#d3861d"/><stop offset="0.17" stop-color="#dd8d20"/><stop offset="0.22" stop-color="#e08f21"/><stop offset="0.27" stop-color="#d6881d"/><stop offset="0.43" stop-color="#b56f11"/><stop offset="0.52" stop-color="#a9660d"/><stop offset="0.57" stop-color="#b06b11"/><stop offset="0.65" stop-color="#c57a1d"/><stop offset="0.74" stop-color="#e69230"/><stop offset="0.8" stop-color="#fba23d"/><stop offset="0.84" stop-color="#f8a03b"/><stop offset="0.88" stop-color="#ee9935"/><stop offset="0.92" stop-color="#dd8e2c"/><stop offset="0.95" stop-color="#c57e1e"/><stop offset="0.99" stop-color="#a6690d"/><stop offset="1" stop-color="#986005"/></linearGradient><linearGradient id="c" x1="441.87" y1="686.35" x2="169.98" y2="298.04" gradientUnits="userSpaceOnUse"><stop offset="0" stop-color="#ffc173"/><stop offset="0.22" stop-color="#fdc072"/><stop offset="0.25" stop-color="#f6b869"/><stop offset="0.29" stop-color="#e1a251"/><stop offset="0.34" stop-color="#c17e29"/><stop offset="0.35" stop-color="#b97520"/><stop offset="0.63" stop-color="#e2b06a"/><stop offset="0.82" stop-color="#ffdaa0"/><stop offset="0.91" stop-color="#e3ab51"/><stop offset="0.97" stop-color="#cf8a1c"/><stop offset="1" stop-color="#c87e07"/></linearGradient><linearGradient id="d" x1="157.3" y1="656.1" x2="450.57" y2="318.72" xlink:href="#b"/><linearGradient id="e" x1="1062.42" y1="672.7" x2="1272.69" y2="260.03" xlink:href="#a"/><linearGradient id="f" x1="1034.21" y1="633.15" x2="1315.55" y2="309.51" xlink:href="#b"/><linearGradient id="g" x1="223.06" y1="878.46" x2="-76.9" y2="263.45" gradientUnits="userSpaceOnUse"><stop offset="0" stop-color="#ffc173"/><stop offset="0.18" stop-color="#fdc072"/><stop offset="0.21" stop-color="#f6b869"/><stop offset="0.27" stop-color="#e1a251"/><stop offset="0.34" stop-color="#c17e29"/><stop offset="0.36" stop-color="#b97520"/><stop offset="0.63" stop-color="#e2b06a"/><stop offset="0.82" stop-color="#ffdaa0"/><stop offset="0.91" stop-color="#e3ab51"/><stop offset="0.97" stop-color="#cf8a1c"/><stop offset="1" stop-color="#c87e07"/></linearGradient><linearGradient id="h" x1="-169.48" y1="795.59" x2="246.62" y2="316.92" xlink:href="#b"/><linearGradient id="i" x1="550.39" y1="639.92" x2="456.54" y2="233.41" xlink:href="#a"/><linearGradient id="j" x1="370.8" y1="611.26" x2="639.46" y2="302.21" xlink:href="#b"/><linearGradient id="k" x1="917.91" y1="641.29" x2="982.73" y2="232.03" xlink:href="#a"/><linearGradient id="l" x1="827.13" y1="587.26" x2="1082.14" y2="293.9" xlink:href="#b"/><linearGradient id="m" x1="741.76" y1="603.7" x2="728.77" y2="231.76" xlink:href="#a"/><linearGradient id="n" x1="599.93" y1="516.17" x2="846.5" y2="232.52" xlink:href="#b"/><linearGradient id="o" x1="741.52" y1="603.7" x2="728.53" y2="231.76" xlink:href="#a"/><linearGradient id="p" x1="599.68" y1="516.17" x2="846.26" y2="232.52" xlink:href="#b"/><linearGradient id="q" x1="747.57" y1="603.44" x2="727.99" y2="229.79" xlink:href="#a"/><linearGradient id="r" x1="599.74" y1="515.8" x2="845.66" y2="232.9" xlink:href="#b"/><radialGradient id="s" cx="349.64" cy="-795.6" r="25.08" gradientTransform="matrix(0.9, 0.44, -0.33, 0.68, -227.2, 763.41)" gradientUnits="userSpaceOnUse"><stop offset="0.39" stop-color="#93002d"/><stop offset="0.5" stop-color="#8b012c"/><stop offset="1" stop-color="#680426"/></radialGradient><linearGradient id="t" x1="648.24" y1="256.18" x2="689.72" y2="256.18" gradientTransform="translate(-339.76 182) rotate(-5.19)" gradientUnits="userSpaceOnUse"><stop offset="0" stop-color="#6a3c00"/><stop offset="0.03" stop-color="#8c540a"/><stop offset="0.06" stop-color="#ab6912"/><stop offset="0.1" stop-color="#c27a19"/><stop offset="0.13" stop-color="#d3861d"/><stop offset="0.17" stop-color="#dd8d20"/><stop offset="0.22" stop-color="#e08f21"/><stop offset="0.28" stop-color="#d6881d"/><stop offset="0.47" stop-color="#b56f11"/><stop offset="0.57" stop-color="#a9660d"/><stop offset="0.61" stop-color="#b06d11"/><stop offset="0.68" stop-color="#c5811d"/><stop offset="0.75" stop-color="#e6a030"/><stop offset="0.8" stop-color="#fbb53d"/><stop offset="0.84" stop-color="#f8b23b"/><stop offset="0.88" stop-color="#eeaa35"/><stop offset="0.92" stop-color="#dd9b2c"/><stop offset="0.95" stop-color="#c5861e"/><stop offset="0.99" stop-color="#a66c0d"/><stop offset="1" stop-color="#986005"/></linearGradient><linearGradient id="u" x1="348.43" y1="375.53" x2="344.93" y2="356.65" gradientUnits="userSpaceOnUse"><stop offset="0" stop-color="#93002d" stop-opacity="0"/><stop offset="1" stop-color="#fff"/></linearGradient><radialGradient id="v" cx="607.78" cy="-515.04" r="24.51" gradientTransform="matrix(0.76, 0.65, -0.49, 0.57, -106.38, 486.92)" xlink:href="#s"/><linearGradient id="w" x1="-1257.87" y1="2214.99" x2="-1220.82" y2="2214.99" gradientTransform="translate(2917.35 -464.37) rotate(36.27)" xlink:href="#t"/><linearGradient id="x" x1="-1143.17" y1="2090.09" x2="-1154.06" y2="2074.97" gradientTransform="translate(2742.42 -481.15) rotate(34.63)" xlink:href="#u"/><radialGradient id="y" cx="1429.74" cy="-271.25" r="25.01" gradientTransform="matrix(0.99, 0.14, -0.11, 0.75, -14.56, 768.07)" xlink:href="#s"/><linearGradient id="z" x1="1174.47" y1="271.34" x2="1215.67" y2="271.34" gradientTransform="translate(250.55 438.48) rotate(3.01)" xlink:href="#t"/><linearGradient id="aa" x1="802.67" y1="-277.3" x2="787.76" y2="-298" gradientTransform="matrix(0.82, 0.05, -0.05, 0.86, 758.01, 969.13)" xlink:href="#u"/><radialGradient id="ab" cx="1219.91" cy="-956.83" r="14.53" gradientTransform="matrix(0.78, 0.62, -0.47, 0.59, -183.99, 59.93)" xlink:href="#s"/><linearGradient id="ac" x1="834.54" y1="-172.35" x2="862.71" y2="-172.35" gradientTransform="translate(359.68 354.33) rotate(4.9)" xlink:href="#t"/><linearGradient id="ad" x1="375.39" y1="-787.5" x2="366.64" y2="-799.64" gradientTransform="matrix(0.82, 0.08, -0.08, 0.86, 849.37, 901.42)" xlink:href="#u"/><radialGradient id="ae" cx="1003.3" cy="-956.83" r="14.53" gradientTransform="matrix(0.78, 0.62, -0.47, 0.59, -231.12, 194.83)" xlink:href="#s"/><linearGradient id="af" x1="618.72" y1="-153.86" x2="646.89" y2="-153.86" gradientTransform="translate(359.68 354.33) rotate(4.9)" xlink:href="#t"/><linearGradient id="ag" x1="113.94" y1="-763.53" x2="105.19" y2="-775.67" gradientTransform="matrix(0.82, 0.08, -0.08, 0.86, 849.37, 901.42)" xlink:href="#u"/><radialGradient id="ah" cx="806.99" cy="-848.24" r="14.53" gradientTransform="translate(-222.83 334.91) rotate(38.52) scale(1 0.75)" xlink:href="#s"/><linearGradient id="ai" x1="-113.55" y1="-647.18" x2="-122.3" y2="-659.32" gradientTransform="matrix(0.82, 0.08, -0.08, 0.86, 849.37, 901.42)" xlink:href="#u"/><radialGradient id="aj" cx="651.88" cy="-848.24" r="14.53" gradientTransform="translate(-256.58 431.51) rotate(38.52) scale(1 0.75)" xlink:href="#s"/><linearGradient id="ak" x1="275.57" y1="-42.26" x2="303.74" y2="-42.26" gradientTransform="translate(359.68 354.33) rotate(4.9)" xlink:href="#t"/><linearGradient id="al" x1="-300.76" y1="-630.01" x2="-309.51" y2="-642.15" gradientTransform="matrix(0.82, 0.08, -0.08, 0.86, 849.37, 901.42)" xlink:href="#u"/><linearGradient id="am" x1="286.67" y1="160.82" x2="286.67" y2="4.41" gradientUnits="userSpaceOnUse"><stop offset="0" stop-color="#ffc173"/><stop offset="0.03" stop-color="#f6b768"/><stop offset="0.12" stop-color="#db9a49"/><stop offset="0.22" stop-color="#c88632"/><stop offset="0.3" stop-color="#bd7925"/><stop offset="0.38" stop-color="#b97520"/><stop offset="0.49" stop-color="#cf9448"/><stop offset="0.64" stop-color="#e9ba77"/><stop offset="0.75" stop-color="#f9d195"/><stop offset="0.81" stop-color="#ffdaa0"/><stop offset="0.83" stop-color="#fcd699"/><stop offset="0.87" stop-color="#f5c984"/><stop offset="0.91" stop-color="#e9b563"/><stop offset="0.96" stop-color="#d89a35"/><stop offset="1" stop-color="#c87e07"/></linearGradient><linearGradient id="an" x1="286.67" y1="162.32" x2="286.67" y2="2.91" gradientUnits="userSpaceOnUse"><stop offset="0" stop-color="#6a3c00"/><stop offset="0.05" stop-color="#845108"/><stop offset="0.12" stop-color="#a36a12"/><stop offset="0.19" stop-color="#ba7d1a"/><stop offset="0.26" stop-color="#cb8a1f"/><stop offset="0.35" stop-color="#d59222"/><stop offset="0.45" stop-color="#d89523"/><stop offset="0.61" stop-color="#d59221"/><stop offset="0.74" stop-color="#cb8a1d"/><stop offset="0.85" stop-color="#ba7c15"/><stop offset="0.96" stop-color="#a2680a"/><stop offset="1" stop-color="#986005"/></linearGradient><linearGradient id="ao" x1="491.47" y1="160.82" x2="491.47" y2="4.41" xlink:href="#am"/><linearGradient id="ap" x1="491.47" y1="162.32" x2="491.47" y2="2.91" xlink:href="#an"/><linearGradient id="aq" x1="645.42" y1="160.82" x2="645.42" y2="4.41" xlink:href="#am"/><linearGradient id="ar" x1="645.42" y1="162.32" x2="645.42" y2="2.91" xlink:href="#an"/><linearGradient id="as" x1="772.34" y1="160.82" x2="772.34" y2="4.41" xlink:href="#am"/><linearGradient id="at" x1="772.34" y1="162.32" x2="772.34" y2="2.91" xlink:href="#an"/><linearGradient id="au" x1="898.03" y1="160.82" x2="898.03" y2="4.41" xlink:href="#am"/><linearGradient id="av" x1="898.03" y1="162.32" x2="898.03" y2="2.91" xlink:href="#an"/><linearGradient id="aw" x1="1087.97" y1="163.5" x2="1087.97" y2="1.5" xlink:href="#am"/><linearGradient id="ax" x1="1087.97" y1="165" x2="1087.97" y2="0" xlink:href="#an"/><linearGradient id="ay" x1="1235.23" y1="160.82" x2="1235.23" y2="4.41" xlink:href="#am"/><linearGradient id="az" x1="1235.23" y1="162.32" x2="1235.23" y2="2.91" xlink:href="#an"/></defs><title>logo</title><path d="M1455.85,770.26c-.14-13.91-9.43-26.42-24.81-28.57-13.7-1.9-27.5,8.93-28,34.37a91.11,91.11,0,0,0,1.71,19.63c3.21,13.08,5.84,26.21,9,39.26,2.9,11.89,5.88,23.81,7.18,35.88a55.17,55.17,0,0,1,.24,6.72c0,2.66-.17,5.45-.17,8.5-1.21-1.48-1.64-2-2-2.46-9.14-11.83-18.16-23.72-27.42-35.5-14.08-18-17.18-22.86-30.75-43.25-4.45-5.89-5-12.93-5-19.19,0-1.92-3.44-320.08-3.44-320.08s54.81-.41,72.26-.34c5.93-.21,7.77,1.33,7.93,5.92,0,1.84,0,3.68,0,5.52,0,1.61,0,5.68,0,5.84,0,1.18-.16,2.25,2.15,2.57,7.69,1,12-1.3,12.91-7.25.78-5.41.7-39.51.7-42.44,0-7.28-3.33-9.11-12.31-8.87-2.63.06-3.57.74-3.49,2.69,0,.33.09,8.38,0,12.07a5.45,5.45,0,0,1-.79,2.9c-.86,1.54-2.71,2.25-5.61,2.25-22.59,0-51.27-.07-73.86,0,0,0-.23-162.32.09-180.75.15-7,5-11.06,14-12.6,24.45-3.26,48.13,10.53,56.56,19.08,7.95,8,13,21,11.32,31.51-.31,1.68-1.45,6.77-1.52,7.15,5-4.14,11.06-11,12.71-16.45A70.33,70.33,0,0,0,1449,274.7a38.7,38.7,0,0,0-4.08-19.14c-5.8-11.57-21.65-20.29-37.89-20.32-32.94,0-124,1.09-124,1.09a7.24,7.24,0,0,0-1,1.27,6.17,6.17,0,0,0-.86,3.47,4.12,4.12,0,0,0,1.65,3.83,10.74,10.74,0,0,1,3.88,6.72c.08.47.2,1.95.2,2.22,0,.71,0,4,0,5,0,.22,2.54,507.3,2.54,507.3a38.23,38.23,0,0,0-4.15-1c-4.47-.59-13.82,1.26-13,6.86a7.75,7.75,0,0,0,1.52,4.82c1.84,2.84,4.82,4.88,8.39,6.51,2.47,1.15,4.94,2.34,7.34,3.58a151.32,151.32,0,0,1,31,20.65,346.71,346.71,0,0,1,31.46,31.68c7.64,8.61,14.9,17.45,22.08,26.3,12,14.82,23.41,29.88,34,45.29,8.55,12.45,18,24.64,23.18,38.28,3.06,8.16,6,16.36,9,24.52.91,2.49,1.46,5.33,6.48,4.53s6.94-5.71,6.87-10.77c.25-6.23-2.69-13.07-6.87-13-2.79.15-2.79-1.24-2.83-2.78-.31-11.77-1.72-23.52-2.71-35.26a379.54,379.54,0,0,0-5.68-39.26c-3.49-18-7.85-35.91-12.08-53.84-1-4.32-2-8.64-3.08-13.29C1446,802.78,1456.5,785.54,1455.85,770.26Z" stroke-linecap="round" stroke-linejoin="round" stroke-width="4" fill="url(#a)" stroke="url(#b)"/><path d="M403.68,450.64c-.78-10.37-5.68-87.69-6.49-97.73-.3-3.78-.94-15-4.35-15.21-1.46-.1-2.38,1.35-2.45,4.41,0,.18.32,11.12.71,16.19,1.12,14.36,1.56,28.76,2,43.15.06,2,.37,16.05.37,36,0,44.9-1.71,118.52-11.45,151.64-4.17,18.84-10.73,37.07-22.84,54A93.37,93.37,0,0,1,330,669.54c-9.78,5.72-29.28,8.73-39,3-22.52-13.22-27.42-67.17-27.6-130.63-.06-28.59.81-59.07,1.45-88.6,2.07-95.53,30.23-155.23,37.08-163.78,34.25-42.76,69,14.86,66.71,64.65-.13,2.73-.08,5.47-.33,8.24.23-3.23-7.58-14.41-23-13.51-16.35,1.57-22.93,12.36-22.58,23.95-.08,19.29,19.47,41.48,45.52,27.21,11.38-7,14.91-25.87,15-40.54.07-4.93,21.54-128.79-53-123.51-77.72,6.85-119.45,101.61-131.54,201.83a550.22,550.22,0,0,0-3.65,65.59c-.13,96.38,15.84,189.78,36,212.53,38.87,50.24,125.12,1.89,152.88-69.71,17.34-44.74,20.89-114.22,20.87-158.13C404.72,470.74,404.17,457.21,403.68,450.64Z" stroke-miterlimit="10" stroke-width="4" fill="url(#c)" stroke="url(#d)"/><path d="M1237.19,246.52c-1.89-4.36-5.17-8.39-11.38-9.74-8.1-1.78-16.55.94-21.38,6.28a31.52,31.52,0,0,0-8.3,21.78v1h0c0,36.18,2.68,334.82,2.76,352.92,0,1.85-74.08-356-74.17-360a20.58,20.58,0,0,1,4.78-11.9,6.67,6.67,0,0,0,1.55-4.41c.5-3.44-2.33-6.36-7.66-6.45q-24.93-.42-49.88,0c-5.51.1-8.72,3-8.16,6.32a5.62,5.62,0,0,0,1.69,4.21c4,4.3,4.59,9,4.58,13.81q0,3.39,0,8.22c0,68.12,3.75,357.18,4.8,375.68a11.73,11.73,0,0,1-3.6,9,5.92,5.92,0,0,0-2,4.85,8,8,0,0,0,2,5.47,18.43,18.43,0,0,0,7.41,5.58c14.93,6.58,30,13,45,19.41,2.47,1.06,5.17,2,7.92.48a3.07,3.07,0,0,0,1.82-3.42,13.29,13.29,0,0,0-.48-3.45,8.36,8.36,0,0,0-1.42-3,12.81,12.81,0,0,1-2.06-7.28c0-.32,0-.78,0-1.4.11-18-7.46-206.52-7.43-262.34,0-.18,65.29,296.09,69.59,315.65a3.48,3.48,0,0,0,1.06,1.78c5.51,5.08,36.46,33.56,38.58,33.87,2.11.15,3.8-.77,3.69-2.72,0-.25,0-.5,0-.75,0-.09,0-.16,0-.25a24.48,24.48,0,0,0-.66-5.61c-2.22-7.82-5.58-15.53-5.87-23.55-.18-5-.23-10-.23-15,0-7.6.14-15.2.12-22.81,0-8-.17-16-.78-23.93-1-13-3.39-278.15-4.66-307-.3-6.83-.39-13.67-.4-20.51,0-10.35.18-20.7.19-31.06,0-10.57-.14-21.14-.89-31.71.11-1.48,1-2.22,3.73-2.35,3.71-.17,6.7-1.76,8.35-4.52a22.94,22.94,0,0,0,3.55-12.82A20.56,20.56,0,0,0,1237.19,246.52Z" stroke-linecap="round" stroke-linejoin="round" stroke-width="4" fill="url(#e)" stroke="url(#f)"/><path d="M170.52,256.25c-5.81-11.59-21.63-20.31-37.89-20.33-32.94,0-85.49,0-118.43,0-2.81,0-5.42.05-6.62,2.4a6.17,6.17,0,0,0-.86,3.45,4.1,4.1,0,0,0,1.65,3.83,11,11,0,0,1,3.91,6.72,24.51,24.51,0,0,1,.21,3.53c0,1.21,2.77,588.38,3.22,612.9-1.8,23.55-6.51,38.79-8.63,43.66C3.54,920.54,1.91,928.5,2,934.45c-.09,6.16,1.53,10.41,4.74,10.87,2.19-.57,3-2,3.68-3.46,10.92-25,48.4-57.3,64.78-78.61,2.66-3.45,6-8.38,5.89-12.49a4.75,4.75,0,0,0,0-.54,3.52,3.52,0,0,0,0-.45c-.13-4.38-2-4.39-3.09-15.78S75.4,498.37,75.31,468.9c0-2,1-2.65,3.6-2.61,5.47.08,54.58.16,71.33-.39,5.92-.2,7.85,2.53,8,7.13.06,1.8,0,11.18,0,11.36,0,1.18-.13,2.25,2.18,2.56,7.67,1,12-1.28,12.87-7.24,1-6.93.66-36.43.66-43.64s-3.25-9.5-12.23-9.27c-2.66.07-3.59.74-3.53,2.71,0,.33.1,8.38,0,12.07s-2.06,5.15-6.4,5.15c-22.59,0-48.19-.53-70.78-.45-3,0-3.9-.79-3.94-2.83.13-6,.56-158.68.9-177.11.13-7,4.95-11,14-12.59,4.67-.81,13-.09,17.22.86,13.14,2.94,23.24,9.28,32.35,16.82,8.45,7,12.53,15.11,12.86,24.39,0,1.6.11,3.2.14,4.79,0,4.53-1.91,14.13-2.06,14.5,4-.88,13.89-7.29,18.55-20.06a59,59,0,0,0,3.56-19.68A38.62,38.62,0,0,0,170.52,256.25Z" stroke-miterlimit="10" stroke-width="4" fill="url(#g)" stroke="url(#h)"/><path d="M635.41,574.09c-2.94-7.25-13.24-14.56-26.57-12.42-3.11.49-9.16,2-9.42,2.07.12-2.59.4-9.94.38-18.64,0-10.9-.43-24.16-2.29-32.84a182.36,182.36,0,0,0-21.4-54.76c-10.22-17.35-22.67-33.63-40.72-47.1-4.82-3.6-10.82-6.55-16-9.72,3.36-.59,20.18-7.17,27.61-13.05,12.71-9.07,21.39-20.09,28-32.16a115.3,115.3,0,0,0,14.43-49c.14-2.29.17-4.58.15-6.88a115.85,115.85,0,0,0-1.88-20c-2.16-12.19-6.63-23.72-16.35-33.69-5.3-5.43-12.18-10.32-21.5-10.42-33.41-.35-66.82-.12-100.23-.17-3.22,0-4.63,1.25-5,3.35a9.49,9.49,0,0,0-.14,2.12,5.12,5.12,0,0,0,1.71,4.61c3.14,2.86,4,6.31,4,10,0,11.91,1,342.49.95,377.22h0c0,.33,0,1.75.06,2.13a2.52,2.52,0,0,1-1.14,1.92c-2.92,2.07-4.76,4.73-6.61,7.32-3.66,5.12-6.84,10.44-8.18,16.22-.18.8-.41,4.89,1.3,5.44,2.42.78,4.08-.72,5.57-2A98.63,98.63,0,0,1,454.58,654c11.92-7.24,24.05-14.14,39.48-16.39,4.05-.59,5.05-2,5.09-5,.38-28.55.79-142.18,1.75-170.44.18-5.44.2-10.89.17-16.33S501,435,501,429.6a4.68,4.68,0,0,1,3.56-4.92c3-1,4.72.55,6.49,1.84,3.39,2.47,6.48,5.15,9.58,7.83a138.13,138.13,0,0,1,30.28,37.53c12,21.4,18.94,43.81,22.78,66.87a332.55,332.55,0,0,1,4.51,49.59c0,1.43,0,2.86,0,4.28,0,2,0,4.07.05,6.1.39,10.37,12.27,17.93,25.29,16.17,19.86-2.7,33.61-16,33.69-30.57A23.92,23.92,0,0,0,635.41,574.09ZM500.1,348.49q0-13.56,0-27.11,0-24.86,0-49.7a29.13,29.13,0,0,1,1.84-11.21c3.11-7.59,11-10.13,20.66-7.06,12.67,4,19.69,11.83,24.43,21,6.51,12.6,8.71,25.68,8.83,38.89,0,4.22-.17,8.45-.51,12.69-.92,11.72-5.91,22.8-14.71,32.61s-20.54,16.43-35.68,19.6c-3.8.8-4.9,0-4.9-2.89Q500.12,361.91,500.1,348.49Z" stroke-miterlimit="10" stroke-width="4" fill="url(#i)" stroke="url(#j)"/><path d="M1025.42,646.62c-2.69-8.21-6-16.4-7.39-24.76-2.08-12.36-2.86-24.85-4-37.29s-5.71-310.06-5.71-310.46c-.09-1.45.38-2.36,2.76-2.43a10.18,10.18,0,0,0,9.46-5.95,19.87,19.87,0,0,0,2.25-9.88,24,24,0,0,0-.67-6.14c-1.22-5.17-3.48-10.58-10.87-12.91-9.47-3-20.24.69-24.58,7.92a39.34,39.34,0,0,0-5.58,20.62v1c0,32.73,6.46,291.7,6.58,312.86v.1c-.19,11.73-11.06,18.2-26.33,15.52-16.25-2.85-30.53-11.27-31.08-28.72-.4-13-2.81-272.79-2.9-307,0-5.13.24-10,4.57-14.52a4.09,4.09,0,0,0,1.29-3.43c.47-2.79-2.6-5.22-7.22-5.23-8.16,0-40.8.13-48.95-.06-4.1-.1-6.11,1.54-6.25,4.66,0,.23-.23,3.95,1.94,5.59a8.9,8.9,0,0,1,2.9,6.22c.15,5.89.54,115.79.54,205,0,53.38-.14,99.14-.56,110.37-.18,4.73,0,9.47-.08,14.2-.05,2.09,0,4.45-2.26,5.9-8.46,5.38-11.48,12.77-13.38,20.48a5.4,5.4,0,0,0-.09,1.89,5.32,5.32,0,0,0,2.81,5.2c2.65,1.52,4.85,0,6.88-.92,6-2.61,12.42-3.12,19.07-2.58,3.87.32,7.7.91,11.52,1.5A451.54,451.54,0,0,1,996.68,639a33.8,33.8,0,0,1,11.61,7c3.77,3.75,8.06,7.2,12.14,10.77a4.15,4.15,0,0,0,4.19,1c1.55-.5,1.63-1.62,1.62-2.71,0-.24,0-.48,0-.72,0-.09,0-.19,0-.28A23.85,23.85,0,0,0,1025.42,646.62Z" stroke-miterlimit="10" stroke-width="4" fill="url(#k)" stroke="url(#l)"/><path d="M845.74,235.24h-4.87c-6.85,3.31-13.69,7.18-21.93,7.56-8.4.39-16.84.92-25.29.91-47.84,0-95.68-.12-143.52.06-10.42,0-19.77-1.84-28.33-6.13-3.2-1.6-6.62-2.86-9.92-1a4.71,4.71,0,0,0-2.61,4.86,10.55,10.55,0,0,0,.67,4c6.17,18.87,16.15,36.67,26.6,54.35,3.69,6.25,7.41,12.5,10.93,18.8a15.13,15.13,0,0,1,1.15,1.95c-.23.48-.85.91-2.25,1.23-9,2-13.69,8.25-13.49,14.91A15.32,15.32,0,0,0,635.6,346c3.22,4.82,8.44,7.92,15.47,7.93s12.62-2.66,16.32-7.58a12.89,12.89,0,0,0,2.68-9c0-3.25-1.05-6.49-2.17-9.76-4.44-12.93-11.09-25.3-16.65-37.94-2.86-6.5-5.32-13.13-5.26-20.12.1-2.15,1-2.83,3.84-2.82s5.57.55,8.37.75c14.28,1,28.6,1.56,42.88,2.7,4.12.33,4.3,1.55,4.35,3.95.27,14.69.64,115.23.65,196.18v5.19c0,49.15-.15,89.87-.56,97.58-.36,6.86-.2,13.54-5,19.87a6,6,0,0,0-1.15,3.86c0,3.44,2.93,6.13,7.9,6.34,11.66.51,30.62,1.1,42.63.23,6.57-.47,9.79-3,9.62-6.6-.07-1.37-.92-3-2.12-4.79-1.44-2.2-3.1-4.26-3.15-6.94-.35-19-.8-220.27-.81-307.13v-3.05c0-.94,0-1.89,0-2.84,0-1.6,1.09-2.27,3.19-2.4q21.66-1.38,43.33-2.85c3.57-.24,7.08-.93,10.72-.71,1.19.07,2.34.1,2.6.92-1.37,6.53-2.08,13.13-4.83,19.49-6.31,14.56-14.18,28.75-18.77,43.74a22.51,22.51,0,0,0-1.31,7.4,11.66,11.66,0,0,0,.73,4.73c3.25,8.46,14.88,13.4,24.29,10.11,8.81-3.07,12.14-8.89,12.27-15.51,0-.2,0-.38,0-.58s0-.28,0-.42c.11-6.4-3.64-11.77-12.29-14.11-2-.53-2.92-1.13-3.16-1.95a6.73,6.73,0,0,1,.8-1.72q7.71-12.53,14.89-25.23c8.39-14.87,16.51-29.82,21.83-45.54a15.52,15.52,0,0,0,1.19-6C849.08,239.18,848.38,237.12,845.74,235.24Z" stroke-miterlimit="10" stroke-width="5" fill="url(#m)" stroke="url(#n)"/><path d="M845.5,235.24h-4.87c-6.85,3.31-13.69,7.18-21.93,7.56-8.4.39-16.84.92-25.29.91-47.84,0-95.68-.12-143.52.06-10.42,0-19.77-1.84-28.33-6.13-3.2-1.6-6.62-2.86-9.92-1a4.71,4.71,0,0,0-2.61,4.86,10.55,10.55,0,0,0,.67,4c6.17,18.87,16.15,36.67,26.6,54.35,3.69,6.25,7.41,12.5,10.93,18.8a15.13,15.13,0,0,1,1.15,1.95c-.23.48-.85.91-2.25,1.23-9,2-13.69,8.25-13.49,14.91a15.3,15.3,0,0,0,2.71,9.17c3.23,4.82,8.45,7.92,15.48,7.93s12.62-2.66,16.31-7.58a12.85,12.85,0,0,0,2.69-9c0-3.25-1.05-6.49-2.17-9.76-4.44-12.93-11.09-25.3-16.66-37.94-2.86-6.5-5.31-13.13-5.25-20.12.1-2.15,1-2.83,3.84-2.82s5.57.55,8.36.75c14.29,1,28.61,1.56,42.89,2.7,4.12.33,4.3,1.55,4.35,3.95.27,14.69.64,115.23.65,196.18v5.19c0,49.15-.16,89.87-.56,97.58-.36,6.86-.2,13.54-5,19.87a6,6,0,0,0-1.15,3.86c0,3.44,2.93,6.13,7.9,6.34,11.66.51,30.62,1.1,42.63.23,6.57-.47,9.79-3,9.62-6.6-.07-1.37-.93-3-2.13-4.79-1.44-2.2-3.09-4.26-3.14-6.94-.35-19-.8-220.27-.81-307.13v-3.05c0-.94,0-1.89,0-2.84,0-1.6,1.08-2.27,3.18-2.4q21.68-1.38,43.34-2.85c3.57-.24,7.08-.93,10.72-.71,1.19.07,2.34.1,2.6.92-1.38,6.53-2.08,13.13-4.84,19.49-6.3,14.56-14.18,28.75-18.76,43.74a22.51,22.51,0,0,0-1.31,7.4,11.49,11.49,0,0,0,.73,4.73c3.25,8.46,14.88,13.4,24.29,10.11,8.81-3.07,12.14-8.89,12.26-15.51,0-.2,0-.38,0-.58s0-.28,0-.42c.12-6.4-3.63-11.77-12.28-14.11-2-.53-2.92-1.13-3.16-1.95a6.4,6.4,0,0,1,.8-1.72q7.71-12.53,14.88-25.23c8.4-14.87,16.51-29.82,21.83-45.54a15.36,15.36,0,0,0,1.2-6C848.83,239.18,848.14,237.12,845.5,235.24Z" stroke-miterlimit="10" stroke-width="5" fill="url(#o)" stroke="url(#p)"/><path d="M845.23,235.24h-4.87c-6.86,3.31-13.69,7.18-21.93,7.56-8.41.39-16.84.92-25.3.91-47.83,0-95.68-.12-143.51.06-10.43,0-19.78-1.84-28.34-6.13-3.2-1.6-6.61-2.86-9.92-1a4.73,4.73,0,0,0-2.61,4.86,10.75,10.75,0,0,0,.67,4c6.18,18.87,16.16,36.67,26.6,54.35,3.7,6.25,7.41,12.5,10.94,18.8a16.37,16.37,0,0,1,1.15,1.95c-.23.48-.86.91-2.25,1.23-9.05,2-13.69,8.25-13.49,14.91a15.3,15.3,0,0,0,2.71,9.17c3.22,4.82,8.44,7.92,15.48,7.93s12.61-2.66,16.31-7.58a12.85,12.85,0,0,0,2.69-9c0-3.25-1-6.49-2.18-9.76-4.43-12.93-11.08-25.3-16.65-37.94-2.86-6.5-5.31-13.13-5.26-20.12.1-2.15,1-2.83,3.85-2.82s5.57.55,8.36.75c14.28,1,28.61,1.56,42.88,2.7,4.12.33,4.31,1.55,4.35,3.95.27,14.69.5,291.24.09,299-.36,6.86-.19,13.54-5,19.87a6.1,6.1,0,0,0-1.15,3.86c0,3.44,2.94,6.13,7.91,6.34,11.66.51,30.62,1.1,42.62.23,6.57-.47,9.8-3,9.62-6.6-.06-1.37-.92-3-2.12-4.79-1.44-2.2-3.1-4.26-3.15-6.94-.35-19-.8-220.27-.8-307.13v-3.05c0-.94,0-1.89,0-2.84,0-1.6,1.09-2.27,3.19-2.4q21.68-1.38,43.33-2.85c3.58-.24,7.09-.93,10.72-.71,1.19.07,2.35.1,2.6.92-1.37,6.53-2.08,13.13-4.83,19.49-6.3,14.56-14.18,28.75-18.76,43.74a22.52,22.52,0,0,0-1.32,7.4,11.67,11.67,0,0,0,.74,4.73c3.25,8.46,14.88,13.4,24.29,10.11,8.8-3.07,12.14-8.89,12.26-15.51v-1c.12-6.4-3.63-11.77-12.29-14.11-2-.53-2.91-1.13-3.16-1.95a6.47,6.47,0,0,1,.81-1.72q7.71-12.53,14.88-25.23c8.39-14.87,16.51-29.82,21.83-45.54a15.73,15.73,0,0,0,1.2-6C848.56,239.18,847.87,237.12,845.23,235.24Z" stroke-miterlimit="10" stroke-width="4" fill="url(#q)" stroke="url(#r)"/><ellipse cx="349.64" cy="376.64" rx="18.32" ry="23.27" transform="translate(-129.5 190.81) rotate(-25.93)" fill="url(#s)"/><path d="M353.28,400.35c-10.26,0-20.55-8.71-23.75-20.64a24.48,24.48,0,0,1,1.25-17.26,16.55,16.55,0,0,1,12.54-9.32c11.1-1.69,22.95,7.47,26.43,20.43s-2.7,24.89-13.79,26.58A18.61,18.61,0,0,1,353.28,400.35Zm-7.19-44.82A13.18,13.18,0,0,0,334,363.37a22.51,22.51,0,0,0-1.1,15.83c3.11,11.55,13.14,19.8,22.36,18.39s14.2-12,11.1-23.51h0C363.5,363.39,354.7,355.53,346.09,355.53Z" fill="url(#t)"/><path d="M349,374.43a16.87,16.87,0,0,0,8-4c2.57-2.48,2.35-6-.26-8.45-.39-.37-.8-.72-1.23-1.06a15.07,15.07,0,0,0-9.26-3.59,10.56,10.56,0,0,0-1.68.13,11.09,11.09,0,0,0-8.28,6.4,15.29,15.29,0,0,0-1,2.69c-1.31,4.67,3.62,8.95,9.91,8.47A26,26,0,0,0,349,374.43Z" fill="url(#u)"/><ellipse cx="607.78" cy="588.25" rx="24.83" ry="16.4" transform="translate(-236.56 538.02) rotate(-40.66)" fill="url(#v)"/><path d="M599.36,610a17.73,17.73,0,0,1-7.14-1.4c-9.59-4.18-10.42-16.69-1.84-27.9a38,38,0,0,1,15.73-12c6.33-2.54,12.44-2.79,17.23-.7,9.59,4.17,10.42,16.69,1.84,27.9h0a38,38,0,0,1-15.73,12A27.32,27.32,0,0,1,599.36,610Zm16.83-40.83a23,23,0,0,0-8.46,1.79,34.68,34.68,0,0,0-14.36,11c-7.63,10-7.37,20.89.58,24.35,3.71,1.61,8.64,1.35,13.87-.75a34.71,34.71,0,0,0,14.37-11.05h0c7.62-10,7.36-20.88-.58-24.34A13.54,13.54,0,0,0,616.19,569.14Z" fill="url(#w)"/><path d="M610.23,588.09a20.34,20.34,0,0,0,9.33.12c3.88-.91,6.3-3.83,6-6.89q-.08-.71-.21-1.38a9.45,9.45,0,0,0-4.8-6.76,8.84,8.84,0,0,0-1.45-.6c-3.26-1.06-7.31-.46-11.38,1.67a23.39,23.39,0,0,0-2.81,1.74c-4.49,3.2-3.68,8.71,1.73,11A23.8,23.8,0,0,0,610.23,588.09Z" fill="url(#x)"/><ellipse cx="1429.74" cy="772.12" rx="18.7" ry="22.68" transform="translate(-96.53 214.59) rotate(-8.3)" fill="url(#y)"/><path d="M1430.75,796a19.79,19.79,0,0,1-14.45-6.61,26.93,26.93,0,0,1-7-16.42c-1-13.17,7.36-24.28,18.63-24.77a19.74,19.74,0,0,1,15.25,6.6,26.93,26.93,0,0,1,7,16.41c1,13.18-7.36,24.29-18.64,24.77Zm-2-45.21-.58,0c-9.37.4-16.27,10.28-15.38,22a24.67,24.67,0,0,0,6.37,15.06c3.5,3.74,7.84,5.68,12.23,5.5,9.37-.4,16.27-10.28,15.38-22h0a24.75,24.75,0,0,0-6.37-15.06A16.14,16.14,0,0,0,1428.71,750.82Z" fill="url(#z)"/><path d="M1430.56,772a17.39,17.39,0,0,0,8.3-3.79,6,6,0,0,0,.47-8.83,15.74,15.74,0,0,0-1.14-1.17,14.21,14.21,0,0,0-8.94-4.19,10.57,10.57,0,0,0-1.69.05c-3.62.4-6.76,2.64-8.85,6.3a17.42,17.42,0,0,0-1.27,2.77c-1.72,4.81,2.85,9.51,9.18,9.31A25.3,25.3,0,0,0,1430.56,772Z" fill="url(#aa)"/><ellipse cx="1219.91" cy="255.03" rx="12.22" ry="12.51" transform="translate(106.63 815.24) rotate(-38.52)" fill="url(#ab)"/><path d="M1220.2,268.73a14.28,14.28,0,0,1-14.34-13.48,13.16,13.16,0,0,1,5-10.93,13.88,13.88,0,0,1,8.5-3h.22A14.27,14.27,0,0,1,1234,254.81a13.18,13.18,0,0,1-5,10.94,14,14,0,0,1-8.51,3Zm-.57-24.79h-.16a9.89,9.89,0,0,0-6.07,2.18,11,11,0,0,0-4.08,9.06,11.2,11.2,0,0,0,10.88,10.95h.15a10,10,0,0,0,6.07-2.18,11,11,0,0,0,4.09-9.07A11.2,11.2,0,0,0,1219.63,243.94Z" fill="url(#ac)"/><path d="M1220.45,255a13,13,0,0,0,5.57-2c1.9-1.31,2.06-3.33.56-4.83-.23-.23-.46-.45-.71-.66a10,10,0,0,0-5.76-2.42,8.22,8.22,0,0,0-1.11,0,8.13,8.13,0,0,0-6,3.33,8.82,8.82,0,0,0-.91,1.5c-1.27,2.61,1.6,5.25,5.76,5.22A19,19,0,0,0,1220.45,255Z" fill="url(#ad)"/><ellipse cx="1003.3" cy="255.03" rx="12.22" ry="12.51" transform="translate(59.5 680.34) rotate(-38.52)" fill="url(#ae)"/><path d="M1003.59,268.73a14.28,14.28,0,0,1-14.34-13.48,13.19,13.19,0,0,1,5-10.93,13.91,13.91,0,0,1,8.51-3h.22a14.26,14.26,0,0,1,14.33,13.48h0a13.18,13.18,0,0,1-5,10.94,14,14,0,0,1-8.51,3Zm-.57-24.79h-.15a9.9,9.9,0,0,0-6.08,2.18,11,11,0,0,0-4.08,9.06,11.21,11.21,0,0,0,10.88,10.95h.15a10,10,0,0,0,6.08-2.18,11,11,0,0,0,4.08-9.07A11.2,11.2,0,0,0,1003,243.94Z" fill="url(#af)"/><path d="M1003.85,255a13,13,0,0,0,5.56-2c1.9-1.31,2.06-3.33.57-4.83q-.35-.34-.72-.66a10,10,0,0,0-5.76-2.42,8.22,8.22,0,0,0-1.11,0,8.13,8.13,0,0,0-6,3.33,9.51,9.51,0,0,0-.91,1.5c-1.27,2.61,1.6,5.25,5.77,5.22A19.18,19.18,0,0,0,1003.85,255Z" fill="url(#ag)"/><ellipse cx="806.99" cy="336.94" rx="12.22" ry="12.51" transform="translate(-34.24 575.9) rotate(-38.52)" fill="url(#ah)"/><path d="M807.53,336.9a12.94,12.94,0,0,0,5.56-2c1.9-1.31,2.07-3.34.57-4.83q-.35-.35-.72-.66a9.9,9.9,0,0,0-5.76-2.42,8.22,8.22,0,0,0-1.11,0,8.11,8.11,0,0,0-6,3.33,8.87,8.87,0,0,0-.92,1.5c-1.26,2.61,1.6,5.25,5.77,5.22A19.18,19.18,0,0,0,807.53,336.9Z" fill="url(#ai)"/><ellipse cx="651.88" cy="336.94" rx="12.22" ry="12.51" transform="translate(-67.99 479.3) rotate(-38.52)" fill="url(#aj)"/><path d="M652.17,350.64a14.28,14.28,0,0,1-14.34-13.48,13.16,13.16,0,0,1,5-10.93,13.88,13.88,0,0,1,8.5-3h.22a14.27,14.27,0,0,1,14.34,13.48h0a13.15,13.15,0,0,1-5,10.93,13.91,13.91,0,0,1-8.51,3Zm-.57-24.8h-.16a9.94,9.94,0,0,0-6.07,2.17,11.08,11.08,0,0,0-4.09,9.07,11.21,11.21,0,0,0,10.88,11h.16a10,10,0,0,0,6.07-2.18,11,11,0,0,0,4.09-9.07A11.21,11.21,0,0,0,651.6,325.84Z" fill="url(#ak)"/><path d="M652.42,336.9a13,13,0,0,0,5.57-2c1.89-1.31,2.06-3.34.56-4.83-.23-.23-.46-.45-.71-.66a9.9,9.9,0,0,0-5.76-2.42,8.39,8.39,0,0,0-1.12,0,8.13,8.13,0,0,0-6,3.33,8.82,8.82,0,0,0-.91,1.5c-1.27,2.61,1.6,5.25,5.76,5.22A19,19,0,0,0,652.42,336.9Z" fill="url(#al)"/><path d="M327.68,72.33l-.9,5.82V80.6l-.44,2.68V78.37l-.9-6.26-17-67.7H264.89l-17.21,67.7-.89,6.26V80.6l-.68,2.68V78.15a30.1,30.1,0,0,0-.67-5.82L225.5,4.41H167.91l53.4,156.41h42L285,88.2q.66-1.11,1.11-5.81V79l.67-1.57v4.92l.9,5.81,21.76,72.62h42.39L405.44,4.41H347.68Z" stroke-miterlimit="10" stroke-width="3" fill="url(#am)" stroke="url(#an)"/><polygon points="516.05 61.83 466.89 61.83 466.89 4.41 408.57 4.41 408.57 160.82 466.67 160.82 466.67 102.28 516.49 102.28 516.49 160.82 574.37 160.82 574.37 4.41 516.05 4.41 516.05 61.83" stroke-miterlimit="10" stroke-width="3" fill="url(#ao)" stroke="url(#ap)"/><polygon points="646.09 100.27 695.48 100.27 695.48 62.5 646.32 62.5 646.32 42.84 701.29 42.84 701.29 4.41 588.22 4.41 588.22 160.82 702.63 160.82 702.63 121.94 646.09 121.94 646.09 100.27" stroke-miterlimit="10" stroke-width="3" fill="url(#aq)" stroke="url(#ar)"/><polygon points="773.01 100.27 822.4 100.27 822.4 62.5 773.24 62.5 773.24 42.84 828.21 42.84 828.21 4.41 715.14 4.41 715.14 160.82 829.55 160.82 829.55 121.94 773.01 121.94 773.01 100.27" stroke-miterlimit="10" stroke-width="3" fill="url(#as)" stroke="url(#at)"/><polygon points="899.93 4.41 842.06 4.41 842.06 160.82 954.01 160.82 954.01 120.38 899.93 120.38 899.93 4.41" stroke-miterlimit="10" stroke-width="3" fill="url(#au)" stroke="url(#av)"/><path d="M1089.54,1.5a108,108,0,0,0-23.47,2.68,71.38,71.38,0,0,0-42.34,28q-16,21.8-16,50.39,0,33.52,23.24,57.21t57.65,23.68a89.56,89.56,0,0,0,21.23-2.45q26.6-6.26,42.46-27.27t15.86-51.17q0-35.74-22.23-58.43T1089.54,1.5Zm21.67,91q-2.24,11.83-8.6,18.32a20,20,0,0,1-14.64,6.48q-10.28,0-17.2-9.16t-6.93-25.48q0-16.31,7.37-25.92Q1077.92,48,1088,48q10.27,0,17.21,8.94t6.93,24.35A67.5,67.5,0,0,1,1111.21,92.45Z" stroke-miterlimit="10" stroke-width="3" fill="url(#aw)" stroke="url(#ax)"/><polygon points="1289.97 42.84 1289.97 4.41 1180.48 4.41 1180.48 160.82 1238.36 160.82 1238.36 101.61 1281.93 101.61 1281.93 63.17 1238.58 63.17 1238.58 42.84 1289.97 42.84" stroke-miterlimit="10" stroke-width="3" fill="url(#ay)" stroke="url(#az)"/></svg>