<svg xmlns="http://www.w3.org/2000/svg" xmlns:xlink="http://www.w3.org/1999/xlink" viewBox="0 0 704.01 29.61"><defs><linearGradient id="a" y1="14.8" x2="119" y2="14.8" gradientUnits="userSpaceOnUse"><stop offset="0" stop-color="#e79e3e"/><stop offset="1" stop-color="#e79e3d"/></linearGradient><linearGradient id="b" x1="96.66" y1="14.8" x2="215.66" y2="14.8" xlink:href="#a"/><linearGradient id="c" x1="209.57" y1="14.8" x2="328.57" y2="14.8" xlink:href="#a"/><linearGradient id="d" x1="322.34" y1="14.8" x2="441.34" y2="14.8" xlink:href="#a"/><linearGradient id="e" x1="435.11" y1="14.8" x2="554.11" y2="14.8" xlink:href="#a"/><linearGradient id="f" x1="547.94" y1="14.8" x2="666.94" y2="14.8" xlink:href="#a"/><linearGradient id="g" x1="585.01" y1="14.8" x2="704.01" y2="14.8" xlink:href="#a"/></defs><path d="M111.79,0a4.56,4.56,0,0,1-4.45,3.56A4.56,4.56,0,0,1,102.9,0H95.67a4.54,4.54,0,0,1-4.44,3.56A4.56,4.56,0,0,1,86.79,0H79.56a4.54,4.54,0,0,1-4.44,3.56A4.56,4.56,0,0,1,70.68,0H63.45A4.54,4.54,0,0,1,59,3.56,4.55,4.55,0,0,1,54.57,0H47.34A4.55,4.55,0,0,1,42.9,3.56,4.55,4.55,0,0,1,38.46,0H31.23a4.55,4.55,0,0,1-4.44,3.56A4.54,4.54,0,0,1,22.35,0H15.12a4.55,4.55,0,0,1-4.44,3.56A4.54,4.54,0,0,1,6.24,0H0V29.61H119V0Z" fill="#60a86b"/><path d="M208.44,0A4.54,4.54,0,0,1,204,3.56,4.55,4.55,0,0,1,199.56,0h-7.23a4.54,4.54,0,0,1-4.44,3.56A4.55,4.55,0,0,1,183.45,0h-7.23a4.55,4.55,0,0,1-4.44,3.56A4.55,4.55,0,0,1,167.34,0h-7.23a4.55,4.55,0,0,1-4.44,3.56A4.54,4.54,0,0,1,151.23,0H144a4.56,4.56,0,0,1-4.44,3.56A4.54,4.54,0,0,1,135.12,0h-7.23a4.56,4.56,0,0,1-4.44,3.56A4.54,4.54,0,0,1,119,0h-7.23a4.56,4.56,0,0,1-4.44,3.56A4.56,4.56,0,0,1,102.89,0H96.66V29.61h119V0Z" fill="#60a86b"/><path d="M321.36,0a4.55,4.55,0,0,1-4.44,3.56A4.54,4.54,0,0,1,312.48,0h-7.23a4.56,4.56,0,0,1-4.44,3.56A4.54,4.54,0,0,1,296.37,0h-7.23a4.56,4.56,0,0,1-4.44,3.56A4.54,4.54,0,0,1,280.26,0H273a4.56,4.56,0,0,1-4.44,3.56A4.56,4.56,0,0,1,264.14,0h-7.23a4.54,4.54,0,0,1-4.44,3.56A4.56,4.56,0,0,1,248,0H240.8a4.54,4.54,0,0,1-4.44,3.56A4.56,4.56,0,0,1,231.92,0h-7.23a4.54,4.54,0,0,1-4.44,3.56A4.55,4.55,0,0,1,215.81,0h-6.24V29.61h119V0Z" fill="#60a86b"/><path d="M434.13,0a4.56,4.56,0,0,1-4.44,3.56A4.54,4.54,0,0,1,425.25,0H418a4.56,4.56,0,0,1-4.44,3.56A4.54,4.54,0,0,1,409.14,0h-7.23a4.56,4.56,0,0,1-4.45,3.56A4.56,4.56,0,0,1,393,0h-7.23a4.54,4.54,0,0,1-4.44,3.56A4.56,4.56,0,0,1,376.91,0h-7.23a4.54,4.54,0,0,1-4.44,3.56A4.56,4.56,0,0,1,360.8,0h-7.23a4.54,4.54,0,0,1-4.44,3.56A4.55,4.55,0,0,1,344.69,0h-7.23A4.54,4.54,0,0,1,333,3.56,4.55,4.55,0,0,1,328.58,0h-6.24V29.61h119V0Z" fill="#60a86b"/><path d="M546.9,0a4.56,4.56,0,0,1-4.44,3.56A4.54,4.54,0,0,1,538,0h-7.24a4.54,4.54,0,0,1-4.44,3.56A4.56,4.56,0,0,1,521.9,0h-7.23a4.54,4.54,0,0,1-4.44,3.56A4.56,4.56,0,0,1,505.79,0h-7.23a4.54,4.54,0,0,1-4.44,3.56A4.56,4.56,0,0,1,489.68,0h-7.23A4.54,4.54,0,0,1,478,3.56,4.55,4.55,0,0,1,473.57,0h-7.23a4.55,4.55,0,0,1-4.44,3.56A4.55,4.55,0,0,1,457.46,0h-7.23a4.55,4.55,0,0,1-4.44,3.56A4.54,4.54,0,0,1,441.35,0h-6.24V29.61h119V0Z" fill="#60a86b"/><path d="M659.72,0a4.55,4.55,0,0,1-4.44,3.56A4.55,4.55,0,0,1,650.84,0h-7.23a4.55,4.55,0,0,1-4.44,3.56A4.54,4.54,0,0,1,634.73,0H627.5a4.56,4.56,0,0,1-4.44,3.56A4.54,4.54,0,0,1,618.62,0h-7.23A4.56,4.56,0,0,1,607,3.56,4.54,4.54,0,0,1,602.51,0h-7.23a4.56,4.56,0,0,1-4.44,3.56A4.56,4.56,0,0,1,586.39,0h-7.23a4.54,4.54,0,0,1-4.44,3.56A4.56,4.56,0,0,1,570.28,0h-7.23a4.54,4.54,0,0,1-4.44,3.56A4.56,4.56,0,0,1,554.17,0h-6.23V29.61h119V0Z" fill="#60a86b"/><path d="M696.8,0a4.55,4.55,0,0,1-4.44,3.56A4.54,4.54,0,0,1,687.92,0h-7.23a4.56,4.56,0,0,1-4.44,3.56A4.54,4.54,0,0,1,671.81,0h-5.9V29.61H704V0Z" fill="#60a86b"/></svg>
